<?xml version="1.0" standalone="no"?>
<!DOCTYPE svg PUBLIC "-//W3C//DTD SVG 1.1//EN" "http://www.w3.org/Graphics/SVG/1.1/DTD/svg11.dtd" >
<svg xmlns="http://www.w3.org/2000/svg" xmlns:xlink="http://www.w3.org/1999/xlink" version="1.1">
<metadata>
Created by FontForge 20160405 at Sat Feb 10 23:30:14 2018
 By Apache
Copyright \(c\) 2014 by Youssef Habchi. All rights reserved.
</metadata>
<defs>
<font id="Kirvy-Regular" horiz-adv-x="560" >
  <font-face 
    font-family="Kirvy"
    font-weight="400"
    font-stretch="normal"
    units-per-em="1000"
    panose-1="0 0 5 3 0 0 0 0 0 0"
    ascent="800"
    descent="-200"
    x-height="599"
    cap-height="804"
    bbox="-47 -269 1018 1076"
    underline-thickness="50"
    underline-position="-150"
    stemh="70"
    stemv="70"
    unicode-range="U+0020-2122"
  />
<missing-glyph horiz-adv-x="294" 
 />
    <glyph glyph-name=".notdef" horiz-adv-x="294" 
 />
    <glyph glyph-name="exclam" unicode="!" horiz-adv-x="235" 
d="M102 312l-28 492h90l-28 -492h-34zM119 118c33 0 56 -24 56 -58c0 -33 -22 -60 -57 -60c-33 0 -56 26 -56 59c0 34 24 59 57 59z" />
    <glyph glyph-name="quotedbl" unicode="&#x22;" horiz-adv-x="286" 
d="M60 623v181h70v-181h-70zM166 623v181h70v-181h-70z" />
    <glyph glyph-name="numbersign" unicode="#" horiz-adv-x="714" 
d="M647 804l-83 -250h79v-69h-102l-48 -145h82v-69h-105l-90 -271h-73l90 271h-200l-90 -271h-73l90 271h-72v69h95l48 145h-75v69h98l83 250h73l-83 -250h200l83 250h73zM420 340l48 145h-200l-48 -145h200z" />
    <glyph glyph-name="dollar" unicode="$" horiz-adv-x="576" 
d="M313 435c96 -27 198 -75 198 -191c0 -121 -84 -197 -197 -209v-85h-70v84c-112 8 -161 57 -190 99l-20 29l57 40l20 -29c23 -33 49 -61 132 -68v277c-117 33 -191 85 -191 191c0 110 71 178 190 189v72h70v-74c59 -10 112 -44 149 -97l20 -29l-57 -40l-20 29
c-24 34 -57 57 -91 66v-254zM124 575c0 -66 50 -95 121 -119v236c-84 -9 -121 -47 -121 -117zM315 107l-1 -1c81 12 127 62 127 138c0 67 -45 95 -126 119v-256z" />
    <glyph glyph-name="percent" unicode="%" horiz-adv-x="690" 
d="M527 804h78l-464 -804h-78zM150 516c-76 0 -137 65 -137 144s61 144 137 144s137 -65 137 -144s-61 -144 -137 -144zM150 735c-37 0 -69 -33 -69 -75s32 -75 69 -75s69 33 69 75s-32 75 -69 75zM526 288c76 0 137 -66 137 -144c0 -79 -61 -144 -137 -144
s-137 65 -137 144s61 144 137 144zM526 68c37 0 69 33 69 75s-32 75 -69 75s-69 -33 -69 -75s32 -75 69 -75z" />
    <glyph glyph-name="ampersand" unicode="&#x26;" horiz-adv-x="696" 
d="M597 58l-1 -80c-53 16 -95 56 -134 93c-55 -47 -122 -71 -199 -71c-135 0 -232 82 -232 200c0 92 63 186 168 248c-24 37 -58 99 -58 168c0 100 78 189 179 189c81 0 167 -60 167 -153c0 -115 -97 -186 -197 -234c43 -82 110 -176 169 -242c46 68 70 166 70 286v10h69
v-10c0 -67 -7 -129 -21 -184s-36 -118 -69 -151c47 -45 57 -53 89 -69zM228 386l2 -1c-81 -48 -129 -120 -129 -185c0 -78 63 -130 162 -130c60 0 111 18 151 51c-68 75 -138 175 -186 265zM320 734c-66 0 -108 -64 -108 -111c0 -57 23 -99 48 -144c85 45 159 98 159 175
c0 40 -36 80 -99 80z" />
    <glyph glyph-name="quotesingle" unicode="'" horiz-adv-x="248" 
d="M71 582l-8 43c19 16 24 48 24 92v87h70v-87c0 -63 -24 -97 -86 -135z" />
    <glyph glyph-name="parenleft" unicode="(" horiz-adv-x="370" 
d="M188 827l78 1c-82 -94 -121 -303 -121 -433s39 -342 121 -436l-78 1c-65 91 -113 285 -113 433s48 342 113 434z" />
    <glyph glyph-name="parenright" unicode=")" horiz-adv-x="359" 
d="M108 828l78 -1c65 -92 113 -286 113 -434s-48 -342 -113 -433l-78 -1c82 94 121 306 121 436s-39 339 -121 433z" />
    <glyph glyph-name="asterisk" unicode="*" horiz-adv-x="530" 
d="M436 665v-60h-124l99 -130l-47 -36l-111 147l-111 -147l-47 36l99 130h-124v60h124l-99 130l47 35l111 -146l111 146l47 -35l-99 -130h124z" />
    <glyph glyph-name="plus" unicode="+" horiz-adv-x="628" 
d="M335 49h-70v221h-221v70h221v221h70v-221h221v-70h-221v-221z" />
    <glyph glyph-name="comma" unicode="," horiz-adv-x="226" 
d="M31 -158l-18 40c22 10 50 50 50 92v100h78v-100c0 -60 -44 -112 -110 -132z" />
    <glyph glyph-name="hyphen" unicode="-" horiz-adv-x="426" 
d="M56 261v70h295v-70h-295z" />
    <glyph glyph-name="period" unicode="." horiz-adv-x="232" 
d="M119 110c33 0 56 -24 56 -58c0 -33 -22 -60 -57 -60c-33 0 -56 26 -56 59c0 34 24 59 57 59z" />
    <glyph glyph-name="slash" unicode="/" horiz-adv-x="559" 
d="M160 0h-73l266 804h74z" />
    <glyph glyph-name="zero" unicode="0" horiz-adv-x="632" 
d="M303 0c-61 0 -117 23 -160 65c-75 72 -93 181 -93 337c0 70 6 140 17 191c26 126 119 211 236 211c61 0 117 -23 160 -65c74 -73 92 -182 92 -337c0 -70 -6 -141 -16 -191c-27 -126 -119 -211 -236 -211zM303 734c-99 0 -152 -79 -168 -156c-10 -45 -14 -111 -14 -177
s4 -132 14 -177c16 -77 69 -156 168 -156s152 79 168 156c9 45 14 111 14 177s-5 132 -14 177c-16 77 -69 156 -168 156z" />
    <glyph glyph-name="one" unicode="1" horiz-adv-x="361" 
d="M280 0h-69v648h-97v53c57 0 97 43 97 103h69v-804z" />
    <glyph glyph-name="two" unicode="2" horiz-adv-x="551" 
d="M477 0h-436v33c0 95 24 174 74 241c44 58 99 97 151 134c83 59 142 103 143 193c0 77 -64 133 -143 133c-59 0 -116 -26 -159 -84l-60 36c7 13 66 118 220 118c210 0 213 -200 213 -201c0 -58 -18 -109 -55 -153c-107 -127 -292 -156 -310 -380h362v-70z" />
    <glyph glyph-name="three" unicode="3" horiz-adv-x="584" 
d="M281 0c-170 0 -234 120 -234 120l-5 9l60 36l5 -8c1 -1 14 -22 41 -43c37 -28 81 -42 132 -42c104 0 165 80 165 157c0 87 -71 153 -237 153h-10v70h10c129 0 203 54 203 141c0 69 -55 141 -148 141c-109 0 -155 -75 -156 -76l-18 -30l-60 36l18 30c2 4 62 110 215 110
c120 0 219 -95 219 -210c0 -71 -36 -133 -99 -171c85 -39 134 -110 134 -195c0 -124 -106 -228 -235 -228z" />
    <glyph glyph-name="four" unicode="4" horiz-adv-x="618" 
d="M551 357l-1 -70h-91v-287h-70v287h-348v63l355 454h64v-447h91zM134 357h255v326z" />
    <glyph glyph-name="five" unicode="5" horiz-adv-x="583" 
d="M271 512c134 0 244 -118 244 -256c0 -140 -110 -256 -242 -256c-96 0 -185 60 -223 153l-13 32l65 27l13 -32c27 -67 90 -110 158 -110c95 0 173 83 173 186s-78 187 -173 187c-46 0 -108 -25 -142 -77l-65 3l18 435h387v-70h-320l-11 -264c37 28 85 42 131 42z" />
    <glyph glyph-name="six" unicode="6" horiz-adv-x="620" 
d="M305 515c135 0 240 -121 240 -258c0 -138 -107 -257 -241 -257c-65 0 -126 27 -171 76c-58 62 -73 125 -73 362c0 181 31 366 253 366c74 0 147 -39 192 -104l20 -29l-57 -40l-20 29c-33 47 -82 74 -135 74c-167 0 -184 -138 -184 -300c50 50 105 81 176 81zM305 70
c93 0 170 83 170 187s-77 187 -170 187s-170 -83 -170 -187s77 -187 170 -187z" />
    <glyph glyph-name="seven" unicode="7" horiz-adv-x="637" 
d="M257 0h-70c0 249 147 541 282 734h-397v70h490v-70c-125 -159 -305 -465 -305 -734z" />
    <glyph glyph-name="eight" unicode="8" horiz-adv-x="596" 
d="M410 427c67 -40 114 -112 114 -197c0 -128 -111 -230 -241 -230s-241 102 -241 230c0 80 42 153 116 197c-60 35 -96 104 -96 170c0 115 101 207 222 207s222 -92 222 -207c0 -67 -36 -134 -96 -170zM132 597c0 -74 67 -136 152 -136s152 62 152 136s-67 137 -152 137
s-152 -63 -152 -137zM283 70c95 0 171 73 171 161s-76 161 -171 161s-171 -73 -171 -161s76 -161 171 -161z" />
    <glyph glyph-name="nine" unicode="9" horiz-adv-x="620" 
d="M285 289c-134 0 -240 122 -240 258c0 138 107 257 241 257c65 0 126 -27 171 -76c57 -63 73 -125 73 -362c0 -181 -32 -366 -253 -366c-75 0 -147 39 -192 104l-20 29l57 40l20 -29c32 -47 82 -74 135 -74c166 0 184 138 184 300c-51 -51 -105 -81 -176 -81zM285 735
c-93 0 -170 -83 -170 -187s77 -187 170 -187s170 83 170 187s-77 187 -170 187z" />
    <glyph glyph-name="colon" unicode=":" horiz-adv-x="262" 
d="M138 161c33 0 56 -24 56 -58c0 -33 -22 -60 -57 -60c-33 0 -56 26 -56 59c0 34 24 59 57 59zM137 387c-33 0 -56 26 -56 59c0 34 24 59 57 59s56 -26 56 -60c0 -33 -22 -58 -57 -58z" />
    <glyph glyph-name="semicolon" unicode=";" horiz-adv-x="239" 
d="M121 419c33 0 56 -24 56 -58c0 -33 -22 -60 -57 -60c-33 0 -56 26 -56 59c0 34 24 59 57 59zM52 -141l-18 40c22 10 50 50 50 92v83h78v-83c0 -60 -44 -112 -110 -132z" />
    <glyph glyph-name="less" unicode="&#x3c;" horiz-adv-x="643" 
d="M539 -14l-498 300v41l498 299v-81l-399 -239l399 -241v-79z" />
    <glyph glyph-name="equal" unicode="=" horiz-adv-x="651" 
d="M110 380v70h396v-70h-396zM110 149v70h396v-70h-396z" />
    <glyph glyph-name="greater" unicode="&#x3e;" horiz-adv-x="644" 
d="M75 -14v79l399 240l-399 240v80l498 -299v-41z" />
    <glyph glyph-name="question" unicode="?" horiz-adv-x="549" 
d="M251 116c32 0 54 -25 54 -58c0 -32 -22 -58 -56 -58c-33 0 -55 26 -55 58c0 33 23 58 57 58zM265 804c106 0 213 -67 213 -208c0 -144 -89 -214 -202 -241v-108h-69v158c55 5 202 32 202 192c0 86 -73 141 -142 141c-77 0 -137 -48 -167 -106l-56 39
c22 47 90 133 221 133z" />
    <glyph glyph-name="at" unicode="@" horiz-adv-x="1021" 
d="M714 523h71l-82 -411c-1 -3 -1 -9 -1 -15c0 -19 1 -39 34 -39c75 0 124 170 124 244c0 93 -23 182 -85 273c-66 98 -172 157 -286 157c-203 0 -371 -194 -371 -435s168 -435 371 -435c70 0 139 24 200 69l28 21l42 -56l-28 -21c-73 -54 -157 -83 -243 -83
c-258 0 -440 246 -440 507c0 291 209 507 440 507c251 0 441 -241 441 -507c0 -43 -13 -118 -41 -182c-36 -82 -90 -130 -152 -130c-78 0 -97 54 -102 80c-45 -40 -100 -61 -156 -61c-153 0 -255 145 -255 292c0 156 111 292 255 292c92 0 177 -59 220 -144zM478 74
c101 0 186 98 186 222s-85 222 -186 222s-186 -98 -186 -222s85 -222 186 -222z" />
    <glyph glyph-name="A" unicode="A" horiz-adv-x="717" 
d="M103 0h-73l281 804h60l280 -804h-73l-104 299c-19 -7 -40 -10 -66 -10h-148c-53 0 -68 -34 -69 -36zM341 681l-113 -326c11 2 21 3 33 3h148c23 0 37 4 43 6z" />
    <glyph glyph-name="B" unicode="B" horiz-adv-x="711" 
d="M517 425c65 -41 109 -114 109 -196c0 -125 -104 -229 -228 -229h-334v804h334c115 0 208 -93 208 -208c0 -71 -36 -134 -89 -171zM397 734l-263 -2v-255c0 -10 4 -19 31 -19h232c76 0 138 62 138 138c0 75 -62 138 -138 138zM134 68h262c88 0 159 71 159 159
s-71 159 -159 159h-232c-11 0 -23 2 -31 4z" />
    <glyph glyph-name="C" unicode="C" horiz-adv-x="732" 
d="M379 -2c-198 0 -328 202 -328 403c0 216 146 403 328 403c102 0 203 -60 281 -190l-60 -37c-67 111 -143 156 -221 156c-140 0 -258 -147 -258 -332s118 -332 258 -332c78 0 154 45 221 156l60 -37c-78 -130 -179 -189 -281 -190z" />
    <glyph glyph-name="D" unicode="D" horiz-adv-x="717" 
d="M304 0h-242v804h241c197 0 327 -200 327 -400c0 -240 -159 -404 -326 -404zM132 70l171 -1c139 -1 256 155 256 334c0 184 -117 331 -256 331h-171v-664z" />
    <glyph glyph-name="E" unicode="E" horiz-adv-x="636" 
d="M551 0h-486v804h487v-70h-417v-283c4 5 20 7 31 7h385v-70h-385c-15 0 -23 -4 -27 -8s-5 -12 -5 -15v-297h417v-68z" />
    <glyph glyph-name="F" unicode="F" horiz-adv-x="646" 
d="M165 458l336 -1v-70h-334c-15 0 -23 -3 -27 -7c-5 -5 -5 -15 -5 -15v-365h-70v804h512v-70h-442v-283c4 4 19 7 30 7z" />
    <glyph glyph-name="G" unicode="G" horiz-adv-x="788" 
d="M377 0c-199 0 -327 198 -327 401c0 217 145 403 327 403c107 0 210 -66 275 -183l-61 -34c-54 96 -132 147 -213 147c-140 0 -258 -147 -258 -332s118 -332 258 -332c106 0 233 124 249 293h-248v72h284c18 0 36 -18 36 -36c0 -219 -165 -399 -322 -399z" />
    <glyph glyph-name="H" unicode="H" horiz-adv-x="690" 
d="M592 0h-71v402c-13 -10 -38 -13 -64 -14h-255c-33 0 -69 -13 -69 -37v-351h-70v804h70v-360c15 11 41 15 69 15h251c32 0 69 8 69 37v308h70v-804z" />
    <glyph glyph-name="I" unicode="I" horiz-adv-x="210" 
d="M64 0v804h70v-804h-70z" />
    <glyph glyph-name="J" unicode="J" horiz-adv-x="454" 
d="M38 0v70h10c139 0 257 146 257 330v404h70v-404c0 -215 -145 -400 -327 -400h-10z" />
    <glyph glyph-name="K" unicode="K" horiz-adv-x="670" 
d="M481 804h103l-397 -371c-6 -5 -11 -11 -11 -16c0 -4 5 -10 10 -15l436 -402h-104c-382 353 -384 354 -384 354v-354h-70v804h70v-322c3 3 3 3 347 322z" />
    <glyph glyph-name="L" unicode="L" horiz-adv-x="651" 
d="M134 70h442v-70h-512v804h70v-734z" />
    <glyph glyph-name="M" unicode="M" horiz-adv-x="810" 
d="M637 804h69v-804h-70v596l-218 -596h-67l-217 596v-596h-70v804h68l253 -691z" />
    <glyph glyph-name="N" unicode="N" horiz-adv-x="684" 
d="M516 804h71v-804h-95l-358 657v-657h-70v804h69l383 -703v703z" />
    <glyph glyph-name="O" unicode="O" horiz-adv-x="796" 
d="M378 0c-196 0 -327 200 -327 402c0 216 145 402 327 402c196 0 327 -200 327 -402c0 -216 -146 -402 -327 -402zM378 732c-140 0 -258 -146 -258 -331s118 -331 258 -331s258 146 258 331s-118 331 -258 331z" />
    <glyph glyph-name="P" unicode="P" horiz-adv-x="679" 
d="M398 804c114 -1 206 -95 206 -209s-93 -207 -207 -207h-232c-27 0 -31 -11 -31 -20v-368h-70v804h334zM161 457h236c76 0 138 61 138 137s-62 139 -138 139h-263v-279c9 2 17 3 27 3z" />
    <glyph glyph-name="Q" unicode="Q" horiz-adv-x="796" 
d="M378 71c140 0 258 146 258 331s-118 331 -258 331s-258 -146 -258 -331s118 -331 258 -331zM649 66l6 -71l-10 -1h-4c-14 0 -65 2 -105 54c-51 -31 -101 -48 -157 -48c-196 0 -327 200 -327 402c0 216 145 402 327 402c196 0 327 -200 327 -402
c0 -118 -41 -232 -117 -308c23 -30 50 -28 51 -28h9z" />
    <glyph glyph-name="R" unicode="R" horiz-adv-x="694" 
d="M629 0h-77l-156 353c-16 37 -50 35 -51 35h-179c-27 0 -31 -11 -31 -20v-368h-70v804h333c114 0 207 -94 207 -208c0 -96 -72 -182 -158 -200c0 0 9 -3 25 -40zM134 455c9 2 17 3 27 3h236c76 0 138 62 138 138s-62 138 -138 138h-263v-279z" />
    <glyph glyph-name="S" unicode="S" horiz-adv-x="695" 
d="M328 0h-3c-74 0 -130 9 -176 29c-49 22 -79 54 -99 79l-22 27l56 42l21 -27c34 -43 74 -81 220 -81c134 0 212 63 212 161c0 88 -75 114 -216 149c-141 34 -272 79 -272 218c0 132 101 207 276 207c88 0 167 -40 223 -109l22 -27l-56 -42l-21 27c-41 52 -102 82 -167 82
c-138 0 -205 -46 -205 -137c0 -90 76 -117 219 -152c62 -15 127 -31 178 -60c61 -36 94 -89 94 -155c0 -151 -125 -231 -284 -231z" />
    <glyph glyph-name="T" unicode="T" horiz-adv-x="709" 
d="M637 804v-70h-272v-734h-70v734h-257v70h599z" />
    <glyph glyph-name="U" unicode="U" horiz-adv-x="667" 
d="M317 -1h4c-69 0 -134 27 -183 76s-76 114 -76 183v546h70v-546c0 -103 84 -187 187 -187s187 84 187 187v546h70v-546c0 -69 -27 -134 -76 -183s-114 -76 -183 -76z" />
    <glyph glyph-name="V" unicode="V" horiz-adv-x="723" 
d="M311 0l-281 804h74l240 -688l240 688h74l-280 -804h-67z" />
    <glyph glyph-name="W" unicode="W" horiz-adv-x="1101" 
d="M946 804h72l-281 -804h-60l-153 563l-153 -563h-60l-281 804h71l235 -672l163 599h49l163 -599z" />
    <glyph glyph-name="X" unicode="X" horiz-adv-x="773" 
d="M709 804l-300 -402l299 -402h-85l-256 345l-256 -345h-84l298 402l-298 402h85l256 -345l256 345h85z" />
    <glyph glyph-name="Y" unicode="Y" horiz-adv-x="779" 
d="M718 804l-299 -401c-5 -13 -14 -43 -14 -83v-320h-69v320c0 40 -10 71 -14 83l-298 401h86l261 -351l261 351h86z" />
    <glyph glyph-name="Z" unicode="Z" horiz-adv-x="754" 
d="M680 750l-539 -680h519v-70h-621v54l539 680h-519v70h621v-54z" />
    <glyph glyph-name="bracketleft" unicode="[" horiz-adv-x="254" 
d="M206 -92h-141v942h141v-70h-71v-802h71v-70z" />
    <glyph glyph-name="backslash" unicode="\" horiz-adv-x="424" 
d="M299 0l-267 804h74l266 -804h-73z" />
    <glyph glyph-name="bracketright" unicode="]" horiz-adv-x="256" 
d="M38 -92v70h71v802h-71v70h141v-942h-141z" />
    <glyph glyph-name="underscore" unicode="_" horiz-adv-x="642" 
d="M50 0v70h512v-70h-512z" />
    <glyph glyph-name="grave" unicode="`" horiz-adv-x="226" 
d="M151 642l-138 152h112l82 -152h-56z" />
    <glyph glyph-name="a" unicode="a" 
d="M259 0c-116 0 -216 79 -216 180s100 180 216 180h122c4 0 24 1 24 27v33c0 58 -60 109 -138 109c-50 0 -94 -21 -119 -54l-21 -28l-56 42l21 28c39 52 105 82 176 82c111 0 207 -81 207 -180v-240c0 -101 -100 -179 -216 -179zM379 289l-121 -1
c-80 -1 -147 -49 -147 -108c0 -58 67 -109 147 -109c79 0 147 51 147 109v112c-13 -3 -22 -3 -26 -3z" />
    <glyph glyph-name="b" unicode="b" horiz-adv-x="580" 
d="M206 0h-142v804h70v-192c0 -5 0 -22 31 -22h41c161 0 296 -135 296 -296c0 -162 -134 -294 -296 -294zM134 70l72 -1c124 -2 225 102 225 225c0 124 -101 225 -225 225h-41c-11 0 -23 1 -31 3v-452z" />
    <glyph glyph-name="c" unicode="c" 
d="M300 0c-156 0 -254 153 -254 299c0 163 115 300 253 300c76 0 137 -31 196 -110l-56 -42c-46 61 -90 82 -139 82c-99 0 -182 -99 -182 -230s83 -229 182 -229c49 0 96 21 142 82l56 -42c-59 -79 -125 -110 -198 -110z" />
    <glyph glyph-name="d" unicode="d" horiz-adv-x="575" 
d="M341 0c-153 0 -297 124 -297 294c0 161 135 296 296 296h41c32 0 32 18 32 22v192h70v-804h-142zM411 521v1c-10 -2 -20 -3 -31 -3h-41c-124 0 -225 -101 -225 -225s101 -225 225 -225h72v452z" />
    <glyph glyph-name="e" unicode="e" horiz-adv-x="571" 
d="M300 0c-151 0 -252 138 -252 291c0 164 107 308 252 308c113 0 192 -64 192 -150c0 -93 -91 -161 -215 -161h-137c-17 0 -19 -17 -19 -24c0 -85 84 -193 180 -193c58 0 101 19 148 82l56 -42c-49 -66 -104 -111 -205 -111zM300 530c-84 0 -156 -73 -177 -172
c11 2 15 2 16 2h136c88 0 146 39 146 90c0 36 -34 80 -121 80z" />
    <glyph glyph-name="f" unicode="f" horiz-adv-x="368" 
d="M277 804h35v-68h-35c-74 0 -135 -61 -145 -139c10 2 20 3 31 3h125v-70h-125c-31 0 -32 -15 -32 -23v-507h-70v574c0 127 98 230 216 230z" />
    <glyph glyph-name="g" unicode="g" horiz-adv-x="575" 
d="M342 599h141v-623c0 -99 -96 -181 -207 -181c-71 0 -147 34 -196 110l56 42c35 -57 90 -82 139 -82c78 0 138 52 138 110c0 25 -5 34 -30 34h-41c-161 0 -296 135 -296 296c0 162 134 294 296 294zM382 80c11 0 23 0 31 -2v452h-72c-124 0 -225 -101 -225 -225
s101 -225 225 -225h41z" />
    <glyph glyph-name="h" unicode="h" horiz-adv-x="586" 
d="M280 591c119 0 216 -107 216 -229v-362h-70v362c0 89 -66 160 -146 160h-120c-3 0 -15 0 -26 2v-524h-70v804h70v-181c0 -32 20 -32 23 -32h123z" />
    <glyph glyph-name="i" unicode="i" horiz-adv-x="206" 
d="M62 0v599h70v-599h-70zM45 753c0 28 22 51 50 51s51 -23 51 -51s-23 -50 -51 -50s-50 22 -50 50z" />
    <glyph glyph-name="j" unicode="j" horiz-adv-x="361" 
d="M209 21v578h70v-578c0 -124 -89 -230 -216 -230h-35v70h35c80 0 146 71 146 160zM195 753c0 28 22 51 50 51s51 -23 51 -51s-23 -50 -51 -50s-50 22 -50 50z" />
    <glyph glyph-name="k" unicode="k" horiz-adv-x="570" 
d="M433 0l-212 278c-23 30 -36 31 -48 21l-40 -36v-263h-70v804h70v-452l267 247h107l-271 -244c7 2 26 -11 44 -34l243 -321h-90z" />
    <glyph glyph-name="l" unicode="l" horiz-adv-x="210" 
d="M64 0v804h70v-804h-70z" />
    <glyph glyph-name="m" unicode="m" horiz-adv-x="960" 
d="M636 599c120 0 216 -108 216 -230v-369h-70v369c0 89 -66 160 -146 160s-146 -71 -146 -160v-369h-70v369c0 89 -66 160 -146 160s-146 -71 -146 -160v-369h-70v369c0 127 98 230 216 230c71 0 142 -38 181 -104c38 66 110 104 181 104z" />
    <glyph glyph-name="n" unicode="n" horiz-adv-x="580" 
d="M490 0h-70v369c0 89 -66 160 -146 160s-146 -71 -146 -160v-369h-70v369c0 127 98 230 216 230s216 -103 216 -230v-369z" />
    <glyph glyph-name="o" unicode="o" horiz-adv-x="655" 
d="M308 0c-157 0 -261 146 -261 300c0 165 117 299 261 299c157 0 261 -146 261 -299c0 -166 -117 -300 -261 -300zM308 531c-104 0 -191 -102 -191 -230s87 -231 191 -231s191 103 191 231s-87 230 -191 230z" />
    <glyph glyph-name="p" unicode="p" horiz-adv-x="579" 
d="M132 529v-453c10 2 20 3 31 3h41c124 0 225 101 225 225s-101 225 -225 225h-72zM203 599c152 0 297 -125 297 -294c0 -161 -135 -296 -296 -296h-41c-32 0 -32 -18 -32 -22v-192h-70v804h142z" />
    <glyph glyph-name="q" unicode="q" horiz-adv-x="576" 
d="M342 599h142v-804h-70v192c0 6 2 23 -31 23h-41c-161 0 -296 135 -296 296c0 162 133 293 296 293zM414 529l-72 1c-124 2 -225 -103 -225 -225c0 -124 101 -225 225 -225h41c11 0 23 -1 31 -3v452z" />
    <glyph glyph-name="r" unicode="r" horiz-adv-x="341" 
d="M128 0h-70v368c0 126 96 231 216 231h10v-70h-10c-80 0 -146 -71 -146 -160v-369z" />
    <glyph glyph-name="s" unicode="s" horiz-adv-x="537" 
d="M255 0c-119 0 -170 41 -221 110l55 43c43 -57 68 -82 166 -82c88 0 138 41 138 105c0 61 -66 77 -144 97c-108 27 -197 64 -197 167c0 97 73 159 188 159c69 0 136 -23 201 -110l-55 -43c-56 73 -102 84 -150 84c-70 0 -112 -37 -112 -90c0 -62 66 -79 144 -99
c104 -26 196 -61 196 -163c0 -103 -83 -178 -209 -178z" />
    <glyph glyph-name="t" unicode="t" horiz-adv-x="349" 
d="M130 231c1 -90 67 -161 147 -161h10v-70h-10c-119 0 -216 106 -216 232v572h70v-218c10 2 20 3 31 3h125v-70h-125c-31 0 -32 -15 -32 -23v-265z" />
    <glyph glyph-name="u" unicode="u" horiz-adv-x="576" 
d="M273 0c-118 0 -216 103 -216 230v369h70v-369c0 -89 66 -160 146 -160s146 71 146 160v369h70v-369c0 -127 -98 -230 -216 -230z" />
    <glyph glyph-name="v" unicode="v" horiz-adv-x="598" 
d="M313 0h-62l-223 599h75l179 -480l179 480h75z" />
    <glyph glyph-name="w" unicode="w" horiz-adv-x="920" 
d="M280 127l122 403h63l125 -403l176 472h75l-223 -599h-61l-122 395l-122 -395h-61l-223 599h75z" />
    <glyph glyph-name="x" unicode="x" horiz-adv-x="604" 
d="M546 0h-84l-174 241l-174 -241h-84l216 300l-217 299h84l174 -241l174 241h85l-217 -299z" />
    <glyph glyph-name="y" unicode="y" horiz-adv-x="602" 
d="M468 599h72s-224 -602 -244 -654c-31 -83 -107 -150 -195 -150h-34v68h34c67 0 136 72 136 142c0 26 -8 58 -21 94l-187 500h73c178 -477 181 -485 183 -492z" />
    <glyph glyph-name="z" unicode="z" horiz-adv-x="589" 
d="M499 0h-459v54l376 475h-357v70h459v-54l-376 -476h357v-69z" />
    <glyph glyph-name="braceleft" unicode="{" horiz-adv-x="429" 
d="M331 -74c-55 0 -109 18 -133 78c-17 43 -18 97 -19 153c-3 164 -26 190 -90 193v77c64 3 88 29 91 193c1 55 1 110 19 153c21 52 68 81 132 79l39 -1v-78l-40 1c-37 1 -51 -13 -58 -30c-11 -27 -12 -74 -13 -125c-3 -128 -19 -188 -61 -230c42 -38 58 -102 61 -230
c1 -51 2 -98 13 -125c7 -17 16 -31 58 -30l40 1v-78z" />
    <glyph glyph-name="bar" unicode="|" horiz-adv-x="210" 
d="M65 -81v940h70v-940h-70z" />
    <glyph glyph-name="braceright" unicode="}" horiz-adv-x="430" 
d="M111 -74l-39 1v78l40 -1c42 -1 51 13 58 30c11 27 12 74 13 125c3 128 19 192 61 230c-42 42 -58 102 -61 230c-1 51 -2 98 -13 125c-7 17 -21 31 -58 30l-40 -1v78l39 1c64 2 111 -27 132 -79c18 -43 18 -98 19 -153c3 -164 27 -190 91 -193v-77
c-64 -3 -87 -29 -90 -193c-1 -56 -2 -110 -19 -153c-24 -60 -78 -78 -133 -78z" />
    <glyph glyph-name="exclamdown" unicode="&#xa1;" horiz-adv-x="215" 
d="M58 0l28 492h34l28 -492h-90zM103 686c-33 0 -57 25 -57 59c0 33 23 59 56 59c35 0 57 -27 57 -60c0 -34 -23 -58 -56 -58z" />
    <glyph glyph-name="cent" unicode="&#xa2;" horiz-adv-x="534" 
d="M427 153l56 -42c-53 -70 -103 -98 -158 -107v-55h-70v54c-137 23 -219 157 -219 298c0 146 95 279 219 296v54h70v-55c56 -9 104 -37 156 -107l-56 -42c-46 61 -90 82 -139 82c-99 0 -182 -101 -182 -229c0 -130 83 -230 181 -230c50 0 91 21 142 83z" />
    <glyph glyph-name="sterling" unicode="&#xa3;" horiz-adv-x="635" 
d="M565 0h-528v69h10c23 0 38 5 54 43c18 43 29 120 32 230h-78v70h79c0 285 89 392 229 392c78 0 146 -63 188 -164l4 -9l-65 -27l-4 9c-35 86 -85 123 -132 123c-120 0 -150 -161 -150 -326h222v-70h-223c-3 -133 -16 -218 -43 -272h405v-68z" />
    <glyph glyph-name="currency" unicode="&#xa4;" horiz-adv-x="619" 
d="M522 313h1c0 -44 -12 -88 -33 -123l74 -74l-49 -49l-69 69c-39 -35 -86 -53 -136 -53s-98 19 -136 53l-69 -69l-49 49l74 74c-22 37 -33 79 -33 123c0 45 13 89 34 125l-75 75l49 49l70 -70c39 34 85 52 135 52s97 -19 134 -52l70 70l49 -49l-75 -75
c23 -39 34 -80 34 -125zM310 152c78 0 143 71 143 161s-65 161 -143 161s-143 -71 -143 -161s65 -161 143 -161z" />
    <glyph glyph-name="yen" unicode="&#xa5;" horiz-adv-x="733" 
d="M398 398c-4 -5 -4 -17 -4 -17h158v-69h-167v-40h167v-69h-167v-203h-69v203h-169v69h169v40h-169v69h160c-1 9 -2 13 -5 17l-271 365l55 41l264 -356l264 356l55 -41z" />
    <glyph glyph-name="section" unicode="&#xa7;" horiz-adv-x="526" 
d="M460 402c0 -62 -31 -114 -82 -144c23 -26 33 -55 33 -90c0 -99 -75 -166 -183 -166c-98 0 -144 32 -176 79l-20 29l57 40l20 -29c19 -27 38 -49 119 -49c73 0 113 36 113 97c0 35 -17 52 -52 67c-15 3 -144 43 -177 65c-42 28 -62 67 -62 116c0 65 31 113 88 136
c-27 26 -39 58 -39 97c0 97 69 151 179 151c57 0 110 -29 145 -79l20 -29l-57 -40l-20 29c-22 32 -55 49 -88 49c-73 0 -108 -24 -108 -81c0 -54 40 -69 121 -91c91 -25 169 -61 169 -157zM301 307c57 7 88 41 88 95c0 58 -46 68 -141 95h-20c-73 0 -108 -24 -108 -81
c0 -54 40 -69 121 -91c20 -5 41 -11 60 -18z" />
    <glyph glyph-name="guillemotleft" unicode="&#xab;" horiz-adv-x="441" 
d="M235 120l-201 198l200 198v-99l-100 -99l100 -99zM390 121l-199 198l200 198v-99l-101 -99l101 -100z" />
    <glyph glyph-name="paragraph" unicode="&#xb6;" horiz-adv-x="676" 
d="M452 737v-737h-70v389h-139c-114 0 -207 93 -207 207s93 208 207 208h320v-804h-70v737h-41z" />
    <glyph glyph-name="guillemotright" unicode="&#xbb;" horiz-adv-x="445" 
d="M211 121v99l100 99l-100 99v99l200 -198zM55 121v97l101 100l-101 99v99l200 -198z" />
    <glyph glyph-name="questiondown" unicode="&#xbf;" horiz-adv-x="540" 
d="M270 688c-32 0 -54 25 -54 58c0 32 22 58 56 58c33 0 55 -26 55 -58c0 -33 -23 -58 -57 -58zM256 0c-109 0 -213 71 -213 222c0 132 111 205 202 227v108h69v-158c-54 -5 -202 -32 -202 -186c0 -89 70 -147 142 -147c77 0 137 48 167 106l56 -39
c-22 -47 -90 -133 -221 -133z" />
    <glyph glyph-name="Oslash" unicode="&#xd8;" horiz-adv-x="802" 
d="M723 804l-98 -134c55 -74 85 -169 85 -269c0 -217 -145 -402 -327 -402c-72 0 -144 30 -197 81l-60 -80h-87l100 134c-54 74 -83 167 -83 267c0 217 145 403 327 403c70 0 140 -28 194 -79l59 79h87zM124 400c0 -79 22 -152 57 -208l354 474c-43 42 -96 66 -153 66
c-140 0 -258 -147 -258 -332zM640 400c0 79 -23 153 -59 209l-354 -474c44 -42 97 -66 155 -66c140 0 258 146 258 331z" />
    <glyph glyph-name="germandbls" unicode="&#xdf;" horiz-adv-x="596" 
d="M316 734h-37c-65 0 -116 -56 -119 -130l-1 -604h-69v598c0 125 88 206 217 206c125 0 218 -93 218 -208c0 -71 -36 -134 -89 -171c74 -46 109 -115 109 -188c0 -117 -90 -237 -218 -237c-58 0 -110 16 -160 53l45 54c30 -24 66 -39 104 -39c88 0 158 71 158 159
s-71 159 -159 159h-37v72h38c76 0 138 62 138 138s-62 138 -138 138z" />
    <glyph glyph-name="OE" unicode="&#x152;" horiz-adv-x="1073" 
d="M967 0h-486v20c-33 -13 -67 -20 -102 -20c-194 0 -327 200 -327 402c0 216 146 401 327 401c35 0 71 -8 102 -21v22h487v-70h-417v-278c10 2 20 3 31 3h386v-70h-386c-31 0 -32 -15 -32 -23v-296h417v-70zM378 71c36 0 71 10 103 28v605c-33 19 -67 29 -103 29
c-140 0 -257 -146 -257 -331s117 -331 257 -331z" />
    <glyph glyph-name="perthousand" unicode="&#x2030;" horiz-adv-x="1025" 
d="M527 804h78l-464 -804h-78zM150 516c-76 0 -137 65 -137 144s61 144 137 144s137 -65 137 -144s-61 -144 -137 -144zM150 735c-37 0 -69 -33 -69 -75s32 -75 69 -75s69 33 69 75s-32 75 -69 75zM526 288c76 0 137 -66 137 -144c0 -79 -61 -144 -137 -144
s-137 65 -137 144s61 144 137 144zM526 68c37 0 69 33 69 75s-32 75 -69 75s-69 -33 -69 -75s32 -75 69 -75zM839 288c76 0 137 -66 137 -144c0 -79 -61 -144 -137 -144s-137 65 -137 144s61 144 137 144zM839 68c37 0 69 33 69 75s-32 75 -69 75s-69 -33 -69 -75
s32 -75 69 -75z" />
    <glyph glyph-name="Euro" unicode="&#x20ac;" horiz-adv-x="805" 
d="M674 227l60 -37c-75 -133 -179 -190 -281 -190c-161 0 -285 141 -318 305h-89v70h81c-2 15 -1 28 -1 43h-80v70h87c32 181 167 316 320 316c102 0 203 -60 263 -160l18 -30l-60 -37l-18 30c-49 81 -125 126 -203 126c-118 0 -219 -104 -249 -245h256v-70h-265v-42h264
v-70h-254c33 -138 132 -234 246 -234c79 0 161 41 223 155z" />
    <glyph glyph-name="mu" unicode="&#xb5;" horiz-adv-x="562" 
d="M426 804h70v-360c0 -61 -22 -119 -62 -162c-72 -77 -137 -68 -277 -68c-6 0 -23 1 -23 -33v-181h-70v804h70v-524c13 3 22 3 26 3h120c80 0 146 71 146 160v361z" />
    <glyph glyph-name="oe" unicode="&#x153;" horiz-adv-x="993" 
d="M750 0c-100 0 -177 60 -219 144c-46 -86 -129 -144 -223 -144c-157 0 -261 146 -261 300c0 165 117 299 261 299c103 0 183 -63 226 -150c43 88 121 150 216 150c113 0 192 -64 192 -150c0 -93 -91 -161 -215 -161h-137c-17 0 -19 -17 -19 -24c0 -85 84 -193 180 -193
c58 0 101 19 148 82l56 -42c-49 -66 -104 -111 -205 -111zM308 531c-104 0 -191 -102 -191 -230s87 -231 191 -231c97 0 190 91 190 221c0 116 -60 240 -190 240zM750 530c-84 0 -156 -73 -177 -172c11 2 15 2 16 2h136c88 0 146 39 146 90c0 36 -34 80 -121 80z" />
    <glyph glyph-name="tilde" unicode="&#x2dc;" horiz-adv-x="426" 
d="M284 681c-50 0 -80 37 -121 37c-18 0 -39 -6 -65 -29l-2 55c4 16 26 45 66 45c49 0 79 -38 120 -38c17 0 39 6 66 30l2 -55c-4 -17 -26 -45 -66 -45z" />
    <glyph glyph-name="acute" unicode="&#xb4;" horiz-adv-x="261" 
d="M207 794l-138 -152h-56l82 152h112z" />
    <glyph glyph-name="circumflex" unicode="&#x2c6;" horiz-adv-x="447" 
d="M297 670l-52 54l-53 -54h-94l134 134h26l134 -134h-95z" />
    <glyph glyph-name="dieresis" unicode="&#xa8;" horiz-adv-x="380" 
d="M121 641c-22 0 -43 19 -43 44v12c0 25 19 44 44 44s44 -19 44 -44v-12c0 -23 -20 -44 -45 -44zM270 641c-22 0 -43 19 -43 44v12c0 25 19 44 44 44s44 -19 44 -44v-12c0 -23 -20 -44 -45 -44z" />
    <glyph glyph-name="ring" unicode="&#x2da;" horiz-adv-x="287" 
d="M147 603c-64 0 -115 54 -115 118c0 65 51 119 115 119c63 0 113 -54 113 -119c0 -64 -50 -118 -113 -118zM147 782c-29 0 -54 -26 -54 -61c0 -34 25 -60 54 -60c27 0 53 26 53 60c0 35 -26 61 -53 61z" />
    <glyph glyph-name="fraction" unicode="&#x2044;" horiz-adv-x="542" 
d="M160 0h-73l266 804h74z" />
    <glyph glyph-name="Agrave" unicode="&#xc0;" horiz-adv-x="717" 
d="M103 0h-73l281 804h60l280 -804h-73l-104 299c-19 -7 -40 -10 -66 -10h-148c-53 0 -68 -34 -69 -36zM341 681l-113 -326c11 2 21 3 33 3h148c23 0 37 4 43 6zM356 850l-138 152h112l82 -152h-56z" />
    <glyph glyph-name="Aacute" unicode="&#xc1;" horiz-adv-x="717" 
d="M103 0h-73l281 804h60l280 -804h-73l-104 299c-19 -7 -40 -10 -66 -10h-148c-53 0 -68 -34 -69 -36zM341 681l-113 -326c11 2 21 3 33 3h148c23 0 37 4 43 6zM454 1002l-138 -152h-56l82 152h112z" />
    <glyph glyph-name="Acircumflex" unicode="&#xc2;" horiz-adv-x="717" 
d="M103 0h-73l281 804h60l280 -804h-73l-104 299c-19 -7 -40 -10 -66 -10h-148c-53 0 -68 -34 -69 -36zM341 681l-113 -326c11 2 21 3 33 3h148c23 0 37 4 43 6zM393 867l-52 54l-53 -54h-94l134 134h26l134 -134h-95z" />
    <glyph glyph-name="Atilde" unicode="&#xc3;" horiz-adv-x="717" 
d="M403 864c-50 0 -80 37 -121 37c-18 0 -39 -6 -65 -29l-2 55c4 16 26 45 66 45c49 0 79 -38 120 -38c17 0 39 6 66 30l2 -55c-4 -17 -26 -45 -66 -45zM103 0h-73l281 804h60l280 -804h-73l-104 299c-19 -7 -40 -10 -66 -10h-148c-53 0 -68 -34 -69 -36zM341 681l-113 -326
c11 2 21 3 33 3h148c23 0 37 4 43 6z" />
    <glyph glyph-name="Adieresis" unicode="&#xc4;" horiz-adv-x="717" 
d="M103 0h-73l281 804h60l280 -804h-73l-104 299c-19 -7 -40 -10 -66 -10h-148c-53 0 -68 -34 -69 -36zM341 681l-113 -326c11 2 21 3 33 3h148c23 0 37 4 43 6zM266 872c-22 0 -43 19 -43 44v12c0 25 19 44 44 44s44 -19 44 -44v-12c0 -23 -20 -44 -45 -44zM415 872
c-22 0 -43 19 -43 44v12c0 25 19 44 44 44s44 -19 44 -44v-12c0 -23 -20 -44 -45 -44z" />
    <glyph glyph-name="Aring" unicode="&#xc5;" horiz-adv-x="717" 
d="M103 0h-73l281 804h60l280 -804h-73l-104 299c-19 -7 -40 -10 -66 -10h-148c-53 0 -68 -34 -69 -36zM341 681l-113 -326c11 2 21 3 33 3h148c23 0 37 4 43 6zM341 839c-64 0 -115 54 -115 118c0 65 51 119 115 119c63 0 113 -54 113 -119c0 -64 -50 -118 -113 -118z
M341 1018c-29 0 -54 -26 -54 -61c0 -34 25 -60 54 -60c27 0 53 26 53 60c0 35 -26 61 -53 61z" />
    <glyph glyph-name="AE" unicode="&#xc6;" horiz-adv-x="959" 
d="M871 0h-486v284c-4 -5 -20 -7 -31 -7h-76c-45 0 -64 -24 -68 -33l-110 -244h-73l357 804h488v-70h-417v-283c4 5 20 7 31 7h385v-70h-385c-31 0 -32 -15 -32 -23v-297h417v-68zM354 346c12 0 31 3 31 18v265l-130 -286c11 2 22 3 34 3h65z" />
    <glyph glyph-name="Egrave" unicode="&#xc8;" horiz-adv-x="636" 
d="M326 847l-138 152h112l82 -152h-56zM551 0h-486v804h487v-70h-417v-283c4 5 20 7 31 7h385v-70h-385c-15 0 -23 -4 -27 -8s-5 -12 -5 -15v-297h417v-68z" />
    <glyph glyph-name="Eacute" unicode="&#xc9;" horiz-adv-x="636" 
d="M551 0h-486v804h487v-70h-417v-283c4 5 20 7 31 7h385v-70h-385c-15 0 -23 -4 -27 -8s-5 -12 -5 -15v-297h417v-68zM423 999l-138 -152h-56l82 152h112z" />
    <glyph glyph-name="cedilla" unicode="&#xb8;" horiz-adv-x="335" 
d="M163 -204c30 0 52 30 52 57c0 38 -31 57 -52 57h-65v144h65v-79c65 0 116 -56 116 -122s-51 -122 -116 -122c-66 0 -121 52 -121 117h64c0 -22 22 -52 57 -52z" />
    <glyph glyph-name="Ccedilla" unicode="&#xc7;" horiz-adv-x="732" 
d="M396 -204c30 0 52 30 52 57c0 38 -31 57 -52 57h-65v92c-171 30 -280 214 -280 399c0 216 146 403 328 403c102 0 203 -60 281 -190l-60 -37c-67 111 -143 156 -221 156c-140 0 -258 -147 -258 -332s118 -332 258 -332c78 0 154 45 221 156l60 -37
c-74 -123 -168 -183 -264 -189v-24c65 0 116 -56 116 -122s-51 -122 -116 -122c-66 0 -121 52 -121 117h64c0 -22 22 -52 57 -52z" />
    <glyph glyph-name="Ecircumflex" unicode="&#xca;" horiz-adv-x="636" 
d="M551 0h-486v804h487v-70h-417v-283c4 5 20 7 31 7h385v-70h-385c-15 0 -23 -4 -27 -8s-5 -12 -5 -15v-297h417v-68zM370 875l-52 54l-53 -54h-94l134 134h26l134 -134h-95z" />
    <glyph glyph-name="Edieresis" unicode="&#xcb;" horiz-adv-x="636" 
d="M551 0h-486v804h487v-70h-417v-283c4 5 20 7 31 7h385v-70h-385c-15 0 -23 -4 -27 -8s-5 -12 -5 -15v-297h417v-68zM242 879c-22 0 -43 19 -43 44v12c0 25 19 44 44 44s44 -19 44 -44v-12c0 -23 -20 -44 -45 -44zM391 879c-22 0 -43 19 -43 44v12c0 25 19 44 44 44
s44 -19 44 -44v-12c0 -23 -20 -44 -45 -44z" />
    <glyph glyph-name="Igrave" unicode="&#xcc;" horiz-adv-x="210" 
d="M64 0v804h70v-804h-70zM113 874l-138 152h112l82 -152h-56z" />
    <glyph glyph-name="Iacute" unicode="&#xcd;" horiz-adv-x="210" 
d="M64 0v804h70v-804h-70zM234 1024l-138 -152h-56l82 152h112z" />
    <glyph glyph-name="Icircumflex" unicode="&#xce;" horiz-adv-x="210" 
d="M157 892l-52 54l-53 -54h-94l134 134h26l134 -134h-95zM64 0v804h70v-804h-70z" />
    <glyph glyph-name="Idieresis" unicode="&#xcf;" horiz-adv-x="210" 
d="M30 888c-22 0 -43 19 -43 44v12c0 25 19 44 44 44s44 -19 44 -44v-12c0 -23 -20 -44 -45 -44zM179 888c-22 0 -43 19 -43 44v12c0 25 19 44 44 44s44 -19 44 -44v-12c0 -23 -20 -44 -45 -44zM64 0v804h70v-804h-70z" />
    <glyph glyph-name="Ntilde" unicode="&#xd1;" horiz-adv-x="684" 
d="M516 804h71v-804h-95l-358 657v-657h-70v804h69l383 -703v703zM390 860c-50 0 -80 37 -121 37c-18 0 -39 -6 -65 -29l-2 55c4 16 26 45 66 45c49 0 79 -38 120 -38c17 0 39 6 66 30l2 -55c-4 -17 -26 -45 -66 -45z" />
    <glyph glyph-name="Ograve" unicode="&#xd2;" horiz-adv-x="796" 
d="M378 0c-196 0 -327 200 -327 402c0 216 145 402 327 402c196 0 327 -200 327 -402c0 -216 -146 -402 -327 -402zM378 732c-140 0 -258 -146 -258 -331s118 -331 258 -331s258 146 258 331s-118 331 -258 331zM393 851l-138 152h112l82 -152h-56z" />
    <glyph glyph-name="Oacute" unicode="&#xd3;" horiz-adv-x="796" 
d="M378 0c-196 0 -327 200 -327 402c0 216 145 402 327 402c196 0 327 -200 327 -402c0 -216 -146 -402 -327 -402zM378 732c-140 0 -258 -146 -258 -331s118 -331 258 -331s258 146 258 331s-118 331 -258 331zM515 1002l-138 -152h-56l82 152h112z" />
    <glyph glyph-name="Ocircumflex" unicode="&#xd4;" horiz-adv-x="796" 
d="M378 0c-196 0 -327 200 -327 402c0 216 145 402 327 402c196 0 327 -200 327 -402c0 -216 -146 -402 -327 -402zM378 732c-140 0 -258 -146 -258 -331s118 -331 258 -331s258 146 258 331s-118 331 -258 331zM431 875l-52 54l-53 -54h-94l134 134h26l134 -134h-95z" />
    <glyph glyph-name="Otilde" unicode="&#xd5;" horiz-adv-x="796" 
d="M441 873c-50 0 -80 37 -121 37c-18 0 -39 -6 -65 -29l-2 55c4 16 26 45 66 45c49 0 79 -38 120 -38c17 0 39 6 66 30l2 -55c-4 -17 -26 -45 -66 -45zM378 0c-196 0 -327 200 -327 402c0 216 145 402 327 402c196 0 327 -200 327 -402c0 -216 -146 -402 -327 -402z
M378 732c-140 0 -258 -146 -258 -331s118 -331 258 -331s258 146 258 331s-118 331 -258 331z" />
    <glyph glyph-name="Odieresis" unicode="&#xd6;" horiz-adv-x="796" 
d="M378 0c-196 0 -327 200 -327 402c0 216 145 402 327 402c196 0 327 -200 327 -402c0 -216 -146 -402 -327 -402zM378 732c-140 0 -258 -146 -258 -331s118 -331 258 -331s258 146 258 331s-118 331 -258 331zM306 868c-22 0 -43 19 -43 44v12c0 25 19 44 44 44
s44 -19 44 -44v-12c0 -23 -20 -44 -45 -44zM455 868c-22 0 -43 19 -43 44v12c0 25 19 44 44 44s44 -19 44 -44v-12c0 -23 -20 -44 -45 -44z" />
    <glyph glyph-name="Ugrave" unicode="&#xd9;" horiz-adv-x="667" 
d="M317 -1h4c-69 0 -134 27 -183 76s-76 114 -76 183v546h70v-546c0 -103 84 -187 187 -187s187 84 187 187v546h70v-546c0 -69 -27 -134 -76 -183s-114 -76 -183 -76zM327 839l-138 152h112l82 -152h-56z" />
    <glyph glyph-name="Uacute" unicode="&#xda;" horiz-adv-x="667" 
d="M317 -1h4c-69 0 -134 27 -183 76s-76 114 -76 183v546h70v-546c0 -103 84 -187 187 -187s187 84 187 187v546h70v-546c0 -69 -27 -134 -76 -183s-114 -76 -183 -76zM422 989l-138 -152h-56l82 152h112z" />
    <glyph glyph-name="Ucircumflex" unicode="&#xdb;" horiz-adv-x="667" 
d="M317 -1h4c-69 0 -134 27 -183 76s-76 114 -76 183v546h70v-546c0 -103 84 -187 187 -187s187 84 187 187v546h70v-546c0 -69 -27 -134 -76 -183s-114 -76 -183 -76zM366 868l-52 54l-53 -54h-94l134 134h26l134 -134h-95z" />
    <glyph glyph-name="Udieresis" unicode="&#xdc;" horiz-adv-x="667" 
d="M317 -1h4c-69 0 -134 27 -183 76s-76 114 -76 183v546h70v-546c0 -103 84 -187 187 -187s187 84 187 187v546h70v-546c0 -69 -27 -134 -76 -183s-114 -76 -183 -76zM245 862c-22 0 -43 19 -43 44v12c0 25 19 44 44 44s44 -19 44 -44v-12c0 -23 -20 -44 -45 -44zM394 862
c-22 0 -43 19 -43 44v12c0 25 19 44 44 44s44 -19 44 -44v-12c0 -23 -20 -44 -45 -44z" />
    <glyph glyph-name="Yacute" unicode="&#xdd;" horiz-adv-x="779" 
d="M718 804l-299 -401c-5 -13 -14 -43 -14 -83v-320h-69v320c0 40 -10 71 -14 83l-298 401h86l261 -351l261 351h86zM486 999l-138 -152h-56l82 152h112z" />
    <glyph glyph-name="agrave" unicode="&#xe0;" 
d="M259 0c-116 0 -216 79 -216 180s100 180 216 180h122c4 0 24 1 24 27v33c0 58 -60 109 -138 109c-50 0 -94 -21 -119 -54l-21 -28l-56 42l21 28c39 52 105 82 176 82c111 0 207 -81 207 -180v-240c0 -101 -100 -179 -216 -179zM379 289l-121 -1
c-80 -1 -147 -49 -147 -108c0 -58 67 -109 147 -109c79 0 147 51 147 109v112c-13 -3 -22 -3 -26 -3zM291 654l-138 152h112l82 -152h-56z" />
    <glyph glyph-name="aacute" unicode="&#xe1;" 
d="M259 0c-116 0 -216 79 -216 180s100 180 216 180h122c4 0 24 1 24 27v33c0 58 -60 109 -138 109c-50 0 -94 -21 -119 -54l-21 -28l-56 42l21 28c39 52 105 82 176 82c111 0 207 -81 207 -180v-240c0 -101 -100 -179 -216 -179zM379 289l-121 -1
c-80 -1 -147 -49 -147 -108c0 -58 67 -109 147 -109c79 0 147 51 147 109v112c-13 -3 -22 -3 -26 -3zM394 794l-138 -152h-56l82 152h112z" />
    <glyph glyph-name="acircumflex" unicode="&#xe2;" 
d="M259 0c-116 0 -216 79 -216 180s100 180 216 180h122c4 0 24 1 24 27v33c0 58 -60 109 -138 109c-50 0 -94 -21 -119 -54l-21 -28l-56 42l21 28c39 52 105 82 176 82c111 0 207 -81 207 -180v-240c0 -101 -100 -179 -216 -179zM379 289l-121 -1
c-80 -1 -147 -49 -147 -108c0 -58 67 -109 147 -109c79 0 147 51 147 109v112c-13 -3 -22 -3 -26 -3zM332 670l-52 54l-53 -54h-94l134 134h26l134 -134h-95z" />
    <glyph glyph-name="atilde" unicode="&#xe3;" 
d="M259 0c-116 0 -216 79 -216 180s100 180 216 180h122c4 0 24 1 24 27v33c0 58 -60 109 -138 109c-50 0 -94 -21 -119 -54l-21 -28l-56 42l21 28c39 52 105 82 176 82c111 0 207 -81 207 -180v-240c0 -101 -100 -179 -216 -179zM379 289l-121 -1
c-80 -1 -147 -49 -147 -108c0 -58 67 -109 147 -109c79 0 147 51 147 109v112c-13 -3 -22 -3 -26 -3zM338 681c-50 0 -80 37 -121 37c-18 0 -39 -6 -65 -29l-2 55c4 16 26 45 66 45c49 0 79 -38 120 -38c17 0 39 6 66 30l2 -55c-4 -17 -26 -45 -66 -45z" />
    <glyph glyph-name="adieresis" unicode="&#xe4;" 
d="M259 0c-116 0 -216 79 -216 180s100 180 216 180h122c4 0 24 1 24 27v33c0 58 -60 109 -138 109c-50 0 -94 -21 -119 -54l-21 -28l-56 42l21 28c39 52 105 82 176 82c111 0 207 -81 207 -180v-240c0 -101 -100 -179 -216 -179zM379 289l-121 -1
c-80 -1 -147 -49 -147 -108c0 -58 67 -109 147 -109c79 0 147 51 147 109v112c-13 -3 -22 -3 -26 -3zM190 686c-22 0 -43 19 -43 44v12c0 25 19 44 44 44s44 -19 44 -44v-12c0 -23 -20 -44 -45 -44zM339 686c-22 0 -43 19 -43 44v12c0 25 19 44 44 44s44 -19 44 -44v-12
c0 -23 -20 -44 -45 -44z" />
    <glyph glyph-name="aring" unicode="&#xe5;" 
d="M259 0c-116 0 -216 79 -216 180s100 180 216 180h122c4 0 24 1 24 27v33c0 58 -60 109 -138 109c-50 0 -94 -21 -119 -54l-21 -28l-56 42l21 28c39 52 105 82 176 82c111 0 207 -81 207 -180v-240c0 -101 -100 -179 -216 -179zM379 289l-121 -1
c-80 -1 -147 -49 -147 -108c0 -58 67 -109 147 -109c79 0 147 51 147 109v112c-13 -3 -22 -3 -26 -3zM273 641c-64 0 -115 54 -115 118c0 65 51 119 115 119c63 0 113 -54 113 -119c0 -64 -50 -118 -113 -118zM273 820c-29 0 -54 -26 -54 -61c0 -34 25 -60 54 -60
c27 0 53 26 53 60c0 35 -26 61 -53 61z" />
    <glyph glyph-name="ae" unicode="&#xe6;" horiz-adv-x="896" 
d="M657 0c-85 0 -155 44 -199 110c-33 -66 -112 -110 -199 -110c-116 0 -216 79 -216 180s100 180 216 180h122c4 0 24 1 24 27v33c0 58 -60 109 -138 109c-50 0 -94 -21 -119 -54l-21 -28l-56 42l21 28c39 52 105 82 176 82c85 0 161 -48 192 -115c45 69 115 115 197 115
c113 0 192 -64 192 -150c0 -93 -91 -161 -215 -161h-137c-17 0 -19 -17 -19 -24c0 -85 84 -193 180 -193c58 0 101 19 148 82l56 -42c-49 -66 -104 -111 -205 -111zM379 289l-121 -1c-80 -1 -147 -49 -147 -108c0 -58 67 -109 147 -109c79 0 147 51 147 109v112
c-13 -3 -22 -3 -26 -3zM657 530c-84 0 -156 -73 -177 -172c11 2 15 2 16 2h136c88 0 146 39 146 90c0 36 -34 80 -121 80z" />
    <glyph glyph-name="ccedilla" unicode="&#xe7;" 
d="M310 -204c30 0 52 30 52 57c0 38 -31 57 -52 57h-65v97c-124 31 -199 164 -199 292c0 163 115 300 253 300c76 0 137 -31 196 -110l-56 -42c-46 61 -90 82 -139 82c-99 0 -182 -99 -182 -230s83 -229 182 -229c49 0 96 21 142 82l56 -42c-57 -76 -119 -108 -188 -110v-25
c65 0 116 -56 116 -122s-51 -122 -116 -122c-66 0 -121 52 -121 117h64c0 -22 22 -52 57 -52z" />
    <glyph glyph-name="egrave" unicode="&#xe8;" horiz-adv-x="571" 
d="M300 0c-151 0 -252 138 -252 291c0 164 107 308 252 308c113 0 192 -64 192 -150c0 -93 -91 -161 -215 -161h-137c-17 0 -19 -17 -19 -24c0 -85 84 -193 180 -193c58 0 101 19 148 82l56 -42c-49 -66 -104 -111 -205 -111zM300 530c-84 0 -156 -73 -177 -172
c11 2 15 2 16 2h136c88 0 146 39 146 90c0 36 -34 80 -121 80zM311 652l-138 152h112l82 -152h-56z" />
    <glyph glyph-name="eacute" unicode="&#xe9;" horiz-adv-x="571" 
d="M300 0c-151 0 -252 138 -252 291c0 164 107 308 252 308c113 0 192 -64 192 -150c0 -93 -91 -161 -215 -161h-137c-17 0 -19 -17 -19 -24c0 -85 84 -193 180 -193c58 0 101 19 148 82l56 -42c-49 -66 -104 -111 -205 -111zM300 530c-84 0 -156 -73 -177 -172
c11 2 15 2 16 2h136c88 0 146 39 146 90c0 36 -34 80 -121 80zM415 804l-138 -152h-56l82 152h112z" />
    <glyph glyph-name="ecircumflex" unicode="&#xea;" horiz-adv-x="571" 
d="M300 0c-151 0 -252 138 -252 291c0 164 107 308 252 308c113 0 192 -64 192 -150c0 -93 -91 -161 -215 -161h-137c-17 0 -19 -17 -19 -24c0 -85 84 -193 180 -193c58 0 101 19 148 82l56 -42c-49 -66 -104 -111 -205 -111zM300 530c-84 0 -156 -73 -177 -172
c11 2 15 2 16 2h136c88 0 146 39 146 90c0 36 -34 80 -121 80zM351 670l-52 54l-53 -54h-94l134 134h26l134 -134h-95z" />
    <glyph glyph-name="edieresis" unicode="&#xeb;" horiz-adv-x="571" 
d="M300 0c-151 0 -252 138 -252 291c0 164 107 308 252 308c113 0 192 -64 192 -150c0 -93 -91 -161 -215 -161h-137c-17 0 -19 -17 -19 -24c0 -85 84 -193 180 -193c58 0 101 19 148 82l56 -42c-49 -66 -104 -111 -205 -111zM300 530c-84 0 -156 -73 -177 -172
c11 2 15 2 16 2h136c88 0 146 39 146 90c0 36 -34 80 -121 80zM217 683c-22 0 -43 19 -43 44v12c0 25 19 44 44 44s44 -19 44 -44v-12c0 -23 -20 -44 -45 -44zM366 683c-22 0 -43 19 -43 44v12c0 25 19 44 44 44s44 -19 44 -44v-12c0 -23 -20 -44 -45 -44z" />
    <glyph glyph-name="igrave" unicode="&#xec;" horiz-adv-x="206" 
d="M62 0v599h70v-599h-70zM124 693l-138 152h112l82 -152h-56z" />
    <glyph glyph-name="iacute" unicode="&#xed;" horiz-adv-x="206" 
d="M62 0v599h70v-599h-70zM202 839l-138 -152h-56l82 152h112z" />
    <glyph glyph-name="icircumflex" unicode="&#xee;" horiz-adv-x="206" 
d="M62 0v599h70v-599h-70zM155 702l-52 54l-53 -54h-94l134 134h26l134 -134h-95z" />
    <glyph glyph-name="idieresis" unicode="&#xef;" horiz-adv-x="206" 
d="M62 0v599h70v-599h-70zM24 731c-22 0 -43 19 -43 44v12c0 25 19 44 44 44s44 -19 44 -44v-12c0 -23 -20 -44 -45 -44zM173 731c-22 0 -43 19 -43 44v12c0 25 19 44 44 44s44 -19 44 -44v-12c0 -23 -20 -44 -45 -44z" />
    <glyph glyph-name="ntilde" unicode="&#xf1;" horiz-adv-x="580" 
d="M490 0h-70v369c0 89 -66 160 -146 160s-146 -71 -146 -160v-369h-70v369c0 127 98 230 216 230s216 -103 216 -230v-369zM348 681c-50 0 -80 37 -121 37c-18 0 -39 -6 -65 -29l-2 55c4 16 26 45 66 45c49 0 79 -38 120 -38c17 0 39 6 66 30l2 -55c-4 -17 -26 -45 -66 -45
z" />
    <glyph glyph-name="ograve" unicode="&#xf2;" horiz-adv-x="655" 
d="M308 0c-157 0 -261 146 -261 300c0 165 117 299 261 299c157 0 261 -146 261 -299c0 -166 -117 -300 -261 -300zM308 531c-104 0 -191 -102 -191 -230s87 -231 191 -231s191 103 191 231s-87 230 -191 230zM314 652l-138 152h112l82 -152h-56z" />
    <glyph glyph-name="oacute" unicode="&#xf3;" horiz-adv-x="655" 
d="M308 0c-157 0 -261 146 -261 300c0 165 117 299 261 299c157 0 261 -146 261 -299c0 -166 -117 -300 -261 -300zM308 531c-104 0 -191 -102 -191 -230s87 -231 191 -231s191 103 191 231s-87 230 -191 230zM434 804l-138 -152h-56l82 152h112z" />
    <glyph glyph-name="ocircumflex" unicode="&#xf4;" horiz-adv-x="655" 
d="M308 0c-157 0 -261 146 -261 300c0 165 117 299 261 299c157 0 261 -146 261 -299c0 -166 -117 -300 -261 -300zM308 531c-104 0 -191 -102 -191 -230s87 -231 191 -231s191 103 191 231s-87 230 -191 230zM360 670l-52 54l-53 -54h-94l134 134h26l134 -134h-95z" />
    <glyph glyph-name="otilde" unicode="&#xf5;" horiz-adv-x="655" 
d="M308 0c-157 0 -261 146 -261 300c0 165 117 299 261 299c157 0 261 -146 261 -299c0 -166 -117 -300 -261 -300zM308 531c-104 0 -191 -102 -191 -230s87 -231 191 -231s191 103 191 231s-87 230 -191 230zM370 694c-50 0 -80 37 -121 37c-18 0 -39 -6 -65 -29l-2 55
c4 16 26 45 66 45c49 0 79 -38 120 -38c17 0 39 6 66 30l2 -55c-4 -17 -26 -45 -66 -45z" />
    <glyph glyph-name="odieresis" unicode="&#xf6;" horiz-adv-x="655" 
d="M308 0c-157 0 -261 146 -261 300c0 165 117 299 261 299c157 0 261 -146 261 -299c0 -166 -117 -300 -261 -300zM308 531c-104 0 -191 -102 -191 -230s87 -231 191 -231s191 103 191 231s-87 230 -191 230zM233 690c-22 0 -43 19 -43 44v12c0 25 19 44 44 44
s44 -19 44 -44v-12c0 -23 -20 -44 -45 -44zM382 690c-22 0 -43 19 -43 44v12c0 25 19 44 44 44s44 -19 44 -44v-12c0 -23 -20 -44 -45 -44z" />
    <glyph glyph-name="ugrave" unicode="&#xf9;" horiz-adv-x="576" 
d="M273 0c-118 0 -216 103 -216 230v369h70v-369c0 -89 66 -160 146 -160s146 71 146 160v369h70v-369c0 -127 -98 -230 -216 -230zM271 642l-138 152h112l82 -152h-56z" />
    <glyph glyph-name="uacute" unicode="&#xfa;" horiz-adv-x="576" 
d="M273 0c-118 0 -216 103 -216 230v369h70v-369c0 -89 66 -160 146 -160s146 71 146 160v369h70v-369c0 -127 -98 -230 -216 -230zM396 794l-138 -152h-56l82 152h112z" />
    <glyph glyph-name="ucircumflex" unicode="&#xfb;" horiz-adv-x="576" 
d="M273 0c-118 0 -216 103 -216 230v369h70v-369c0 -89 66 -160 146 -160s146 71 146 160v369h70v-369c0 -127 -98 -230 -216 -230zM323 687l-52 54l-53 -54h-94l134 134h26l134 -134h-95z" />
    <glyph glyph-name="udieresis" unicode="&#xfc;" horiz-adv-x="576" 
d="M273 0c-118 0 -216 103 -216 230v369h70v-369c0 -89 66 -160 146 -160s146 71 146 160v369h70v-369c0 -127 -98 -230 -216 -230zM194 680c-22 0 -43 19 -43 44v12c0 25 19 44 44 44s44 -19 44 -44v-12c0 -23 -20 -44 -45 -44zM343 680c-22 0 -43 19 -43 44v12
c0 25 19 44 44 44s44 -19 44 -44v-12c0 -23 -20 -44 -45 -44z" />
    <glyph glyph-name="yacute" unicode="&#xfd;" horiz-adv-x="602" 
d="M468 599h72s-224 -602 -244 -654c-31 -83 -107 -150 -195 -150h-34v68h34c67 0 136 72 136 142c0 26 -8 58 -21 94l-187 500h73c178 -477 181 -485 183 -492zM424 794l-138 -152h-56l82 152h112z" />
    <glyph glyph-name="ydieresis" unicode="&#xff;" horiz-adv-x="602" 
d="M468 599h72s-224 -602 -244 -654c-31 -83 -107 -150 -195 -150h-34v68h34c67 0 136 72 136 142c0 26 -8 58 -21 94l-187 500h73c178 -477 181 -485 183 -492zM215 665c-22 0 -43 19 -43 44v12c0 25 19 44 44 44s44 -19 44 -44v-12c0 -23 -20 -44 -45 -44zM364 665
c-22 0 -43 19 -43 44v12c0 25 19 44 44 44s44 -19 44 -44v-12c0 -23 -20 -44 -45 -44z" />
    <glyph glyph-name="oslash" unicode="&#xf8;" horiz-adv-x="655" 
d="M308 0c-55 0 -104 18 -144 48l-35 -48h-87l72 98c-43 55 -67 127 -67 202c0 165 117 299 261 299c55 0 103 -18 143 -48l35 48h87l-72 -97c43 -55 68 -128 68 -202c0 -166 -117 -300 -261 -300zM308 531c-104 0 -191 -102 -191 -230c0 -54 16 -104 42 -143l250 338
c-29 22 -64 35 -101 35zM499 301c0 54 -16 103 -42 142l-250 -338c29 -22 64 -35 101 -35c104 0 191 103 191 231z" />
    <glyph glyph-name="Ydieresis" unicode="&#x178;" horiz-adv-x="779" 
d="M718 804l-299 -401c-5 -13 -14 -43 -14 -83v-320h-69v320c0 40 -10 71 -14 83l-298 401h86l261 -351l261 351h86zM294 846c-22 0 -43 19 -43 44v12c0 25 19 44 44 44s44 -19 44 -44v-12c0 -23 -20 -44 -45 -44zM443 846c-22 0 -43 19 -43 44v12c0 25 19 44 44 44
s44 -19 44 -44v-12c0 -23 -20 -44 -45 -44z" />
    <glyph glyph-name="multiply" unicode="&#xd7;" horiz-adv-x="624" 
d="M144 99l-50 50l157 156l-157 156l50 50l156 -157l156 157l50 -50l-157 -156l157 -156l-50 -50l-156 157z" />
    <glyph glyph-name="divide" unicode="&#xf7;" horiz-adv-x="608" 
d="M530 270h-416v70h416v-70zM321 169c33 0 56 -24 56 -58c0 -33 -22 -60 -57 -60c-33 0 -56 26 -56 59c0 34 24 59 57 59zM320 417c-33 0 -56 26 -56 59c0 34 24 59 57 59s56 -26 56 -60c0 -33 -22 -58 -57 -58z" />
    <glyph glyph-name="trademark" unicode="&#x2122;" horiz-adv-x="500" 
d="M304 785l37 -134l38 134h74v-215h-39v173l-52 -173h-41l-52 173v-173h-39v215h74zM89 570v175h-66v39h171v-39h-66v-175h-39z" />
    <glyph glyph-name="copyright" unicode="&#xa9;" horiz-adv-x="833" 
d="M238 392c-112 0 -206 95 -206 207c0 114 94 204 206 204c114 0 204 -90 204 -204c0 -112 -90 -207 -204 -207zM238 748c-82 0 -149 -67 -149 -149s67 -149 149 -149s149 67 149 149s-67 149 -149 149zM238 488c-57 0 -103 40 -103 111c0 69 52 110 103 110
c29 0 60 -19 73 -40l-24 -34c-17 22 -30 29 -49 29c-29 0 -57 -28 -57 -65c0 -41 29 -65 57 -65c19 0 39 9 50 26l24 -31c-15 -24 -46 -41 -74 -41z" />
    <glyph glyph-name="registered" unicode="&#xae;" horiz-adv-x="506" 
d="M238 392c-112 0 -206 95 -206 207c0 114 94 204 206 204c114 0 204 -90 204 -204c0 -112 -90 -207 -204 -207zM238 748c-82 0 -149 -67 -149 -149s67 -149 149 -149s149 67 149 149s-67 149 -149 149zM327 490h-50l-39 87c-3 7 -6 9 -12 9h-18v-96h-45v221h91
c41 0 66 -28 66 -67c0 -23 -19 -45 -39 -53zM241 677h-33v-58h33c16 0 34 11 34 28c0 23 -17 30 -34 30z" />
    <glyph glyph-name="eth" unicode="&#xf0;" horiz-adv-x="624" 
d="M269 624v63l98 30c-46 56 -86 87 -86 87h84c1 2 28 -22 62 -69l144 45v-63l-110 -34c53 -88 108 -220 108 -383c0 -166 -117 -300 -261 -300c-157 0 -261 146 -261 300c0 165 117 299 261 299c66 0 124 -27 167 -69c-19 52 -44 97 -70 136zM308 531
c-104 0 -191 -102 -191 -230s87 -231 191 -231s191 103 191 231s-87 230 -191 230z" />
    <glyph glyph-name="thorn" unicode="&#xfe;" horiz-adv-x="579" 
d="M203 599c152 0 297 -125 297 -294c0 -161 -135 -296 -296 -296h-41c-32 0 -32 -18 -32 -22v-192h-70v1009h70v-205h72zM132 529v-453c10 2 20 3 31 3h41c124 0 225 101 225 225s-101 225 -225 225h-72z" />
    <glyph glyph-name="Thorn" unicode="&#xde;" horiz-adv-x="679" 
d="M398 599c114 -1 206 -95 206 -209s-93 -207 -207 -207h-232c-24 0 -30 -9 -31 -17v-166h-70v804h70v-205h264zM161 252h236c76 0 138 61 138 137s-62 139 -138 139h-263v-279c9 2 17 3 27 3z" />
    <glyph glyph-name="Eth" unicode="&#xd0;" horiz-adv-x="717" 
d="M-20 397v70h82v337h241c197 0 327 -200 327 -400c0 -240 -159 -404 -326 -404h-242v397h-82zM132 70l171 -1c139 -1 256 155 256 334c0 184 -117 331 -256 331h-171v-267h90v-70h-90v-327z" />
    <glyph glyph-name="caron" unicode="&#x2c7;" horiz-adv-x="349" 
d="M172 750l52 54h95l-134 -134h-26l-134 134h94z" />
    <glyph glyph-name="Zcaron" unicode="&#x17d;" horiz-adv-x="754" 
d="M680 750l-539 -680h519v-70h-621v54l539 680h-519v70h621v-54zM356 929l52 54h95l-134 -134h-26l-134 134h94z" />
    <glyph glyph-name="zcaron" unicode="&#x17e;" horiz-adv-x="589" 
d="M499 0h-459v54l376 475h-357v70h459v-54l-376 -476h357v-69zM286 737l52 54h95l-134 -134h-26l-134 134h94z" />
    <glyph glyph-name="Lslash" unicode="&#x141;" horiz-adv-x="651" 
d="M-41 268v73l105 45v418h70v-388l140 60v-73l-140 -60v-273h442v-70h-512v313z" />
    <glyph glyph-name="lslash" unicode="&#x142;" horiz-adv-x="210" 
d="M-47 330v72l111 48v354h70v-324l103 45v-72l-103 -45v-408h-70v378z" />
    <glyph glyph-name="Scaron" unicode="&#x160;" horiz-adv-x="695" 
d="M328 0h-3c-74 0 -130 9 -176 29c-49 22 -79 54 -99 79l-22 27l56 42l21 -27c34 -43 74 -81 220 -81c134 0 212 63 212 161c0 88 -75 114 -216 149c-141 34 -272 79 -272 218c0 132 101 207 276 207c88 0 167 -40 223 -109l22 -27l-56 -42l-21 27c-41 52 -102 82 -167 82
c-138 0 -205 -46 -205 -137c0 -90 76 -117 219 -152c62 -15 127 -31 178 -60c61 -36 94 -89 94 -155c0 -151 -125 -231 -284 -231zM315 931l52 54h95l-134 -134h-26l-134 134h94z" />
    <glyph glyph-name="scaron" unicode="&#x161;" horiz-adv-x="537" 
d="M255 0c-119 0 -170 41 -221 110l55 43c43 -57 68 -82 166 -82c88 0 138 41 138 105c0 61 -66 77 -144 97c-108 27 -197 64 -197 167c0 97 73 159 188 159c69 0 136 -23 201 -110l-55 -43c-56 73 -102 84 -150 84c-70 0 -112 -37 -112 -90c0 -62 66 -79 144 -99
c104 -26 196 -61 196 -163c0 -103 -83 -178 -209 -178zM244 740l52 54h95l-134 -134h-26l-134 134h94z" />
    <glyph glyph-name="quoteright" unicode="&#x2019;" horiz-adv-x="248" 
d="M71 582l-8 43c19 16 24 48 24 92v87h70v-87c0 -63 -24 -97 -86 -135z" />
    <glyph glyph-name="quoteleft" unicode="&#x2018;" horiz-adv-x="248" 
d="M149 804l8 -43c-19 -16 -24 -48 -24 -92v-87h-70v87c0 63 24 97 86 135z" />
    <glyph glyph-name="degree" unicode="&#xb0;" horiz-adv-x="287" 
d="M147 603c-64 0 -115 54 -115 118c0 65 51 119 115 119c63 0 113 -54 113 -119c0 -64 -50 -118 -113 -118zM147 782c-29 0 -54 -26 -54 -61c0 -34 25 -60 54 -60c27 0 53 26 53 60c0 35 -26 61 -53 61z" />
    <glyph glyph-name="asciicircum" unicode="^" horiz-adv-x="486" 
d="M307 620l-62 94l-63 -94h-84l134 184h26l134 -184h-85z" />
    <glyph glyph-name="asciitilde" unicode="~" horiz-adv-x="403" 
d="M284 273c-50 0 -80 37 -121 37c-18 0 -39 -6 -65 -29l-2 55c4 16 26 45 66 45c49 0 79 -38 120 -38c17 0 39 6 66 30l2 -55c-4 -17 -26 -45 -66 -45z" />
    <glyph glyph-name="ellipsis" unicode="&#x2026;" horiz-adv-x="719" 
d="M142 110c33 0 56 -24 56 -58c0 -33 -22 -60 -57 -60c-33 0 -56 26 -56 59c0 34 24 59 57 59zM374 110c33 0 56 -24 56 -58c0 -33 -22 -60 -57 -60c-33 0 -56 26 -56 59c0 34 24 59 57 59zM606 110c33 0 56 -24 56 -58c0 -33 -22 -60 -57 -60c-33 0 -56 26 -56 59
c0 34 24 59 57 59z" />
    <glyph glyph-name="guilsinglleft" unicode="&#x2039;" horiz-adv-x="425" 
d="M278 120l-201 198l200 198v-99l-100 -99l100 -99z" />
    <glyph glyph-name="guilsinglright" unicode="&#x203a;" horiz-adv-x="428" 
d="M334 318l-201 -198l1 99l100 99l-100 99v99z" />
    <glyph glyph-name="quotedblleft" unicode="&#x201c;" horiz-adv-x="362" 
d="M162 804l8 -43c-19 -16 -24 -48 -24 -92v-87h-70v87c0 63 24 97 86 135zM270 804l8 -43c-19 -16 -24 -48 -24 -92v-87h-70v87c0 63 24 97 86 135z" />
    <glyph glyph-name="quotedblright" unicode="&#x201d;" horiz-adv-x="389" 
d="M192 582l-8 43c19 16 24 48 24 92v87h70v-87c0 -63 -24 -97 -86 -135zM84 582l-8 43c19 16 24 48 24 92v87h70v-87c0 -63 -24 -97 -86 -135z" />
    <glyph glyph-name="bullet" unicode="&#x2022;" horiz-adv-x="457" 
d="M117 303c0 47 31 82 78 82s82 -35 82 -82s-35 -78 -82 -78c-38 0 -78 31 -78 78z" />
    <glyph glyph-name="endash" unicode="&#x2013;" horiz-adv-x="501" 
d="M56 261v70h345v-70h-345z" />
    <glyph glyph-name="emdash" unicode="&#x2014;" horiz-adv-x="721" 
d="M56 261v70h575v-70h-575z" />
    <glyph glyph-name="space" unicode=" " horiz-adv-x="294" 
 />
    </font>
</defs>
</svg>
